<svg width="24" height="24" viewBox="0 0 24 24" fill="none" xmlns="http://www.w3.org/2000/svg">
<path d="M19.8168 23.794L15.7144 19.6923L13.7259 21.6808C13.5543 21.8525 13.305 21.9232 13.0674 21.8683C12.8298 21.812 12.6389 21.6375 12.562 21.4062L8.58433 9.47362C8.49986 9.22092 8.56577 8.94215 8.75392 8.754C8.94138 8.56654 9.22084 8.49787 9.47355 8.5844L21.4061 12.5621C21.6375 12.639 21.8119 12.8299 21.8682 13.0675C21.9238 13.3044 21.8531 13.5536 21.6807 13.726L19.6922 15.7145L23.7939 19.8169C24.0685 20.0915 24.0685 20.5365 23.7939 20.8111L20.8111 23.7939C20.5364 24.0687 20.0915 24.0687 19.8168 23.794Z" fill="#30C4F3"/>
<path d="M9.14062 5.625C8.75198 5.625 8.4375 5.31052 8.4375 4.92188V0.703125C8.4375 0.314484 8.75198 0 9.14062 0C9.52927 0 9.84375 0.314484 9.84375 0.703125V4.92188C9.84375 5.31052 9.52927 5.625 9.14062 5.625Z" fill="#30C4F3"/>
<path d="M2.67743 15.604C2.40279 15.3294 2.40279 14.8844 2.67743 14.6098L5.66088 11.6263C5.93553 11.3517 6.38051 11.3517 6.65515 11.6263C6.92979 11.901 6.92979 12.3459 6.65515 12.6206L3.6717 15.604C3.39706 15.8787 2.95212 15.8787 2.67743 15.604Z" fill="#30C4F3"/>
<path d="M11.6263 6.65498C11.3516 6.38034 11.3516 5.93535 11.6263 5.66071L14.6097 2.67726C14.8844 2.40262 15.3293 2.40262 15.604 2.67726C15.8786 2.9519 15.8786 3.39688 15.604 3.67152L12.6205 6.65498C12.3459 6.92962 11.9009 6.92962 11.6263 6.65498Z" fill="#30C4F3"/>
<path d="M4.92188 9.84375H0.703125C0.314484 9.84375 0 9.52927 0 9.14062C0 8.75198 0.314484 8.4375 0.703125 8.4375H4.92188C5.31052 8.4375 5.625 8.75198 5.625 9.14062C5.625 9.52927 5.31052 9.84375 4.92188 9.84375Z" fill="#30C4F3"/>
</svg>
