<svg width="19" height="18" viewBox="0 0 19 18" fill="none" xmlns="http://www.w3.org/2000/svg">
<path d="M17.3178 1.52155C15.244 -0.50757 11.9287 -0.507129 9.8554 1.52255L1.15987 10.2181C-0.412462 11.8275 -0.382413 14.4068 1.22698 15.9791C2.8099 17.5256 5.33793 17.5256 6.92085 15.9791L14.7948 8.10516C15.8184 7.08154 15.8184 5.42187 14.7948 4.39825C13.7712 3.37462 12.1115 3.37462 11.0879 4.39825L3.55627 11.9298C3.29357 12.2018 3.30111 12.6353 3.57312 12.898C3.83846 13.1542 4.2591 13.1542 4.52445 12.898L12.056 5.36639C12.5555 4.88793 13.3482 4.90499 13.8266 5.40442C14.2906 5.88877 14.2906 6.65267 13.8266 7.13702L5.95271 15.0109C4.88901 16.0595 3.17663 16.0472 2.12805 14.9835C1.09006 13.9306 1.09006 12.2392 2.12805 11.1863L10.8236 2.49069C12.3725 0.941231 14.8841 0.94079 16.4336 2.48965C17.9831 4.0385 17.9835 6.55021 16.4346 8.09967L7.73907 16.7952C7.45186 17.0412 7.4184 17.4734 7.66437 17.7607C7.91033 18.0479 8.34257 18.0813 8.62978 17.8354C8.65658 17.8124 8.68153 17.7875 8.70448 17.7607L17.4001 9.06508C19.4604 6.9593 19.4236 3.58192 17.3178 1.52155Z" fill="#828282"/>
</svg>
