<svg width="17" height="15" viewBox="0 0 17 15" fill="none" xmlns="http://www.w3.org/2000/svg">
<path d="M4.36926 15L3.76414 8.41113H1.14868L2.24806 15H4.36926Z" fill="#30C4F3"/>
<path d="M12.0259 15L12.631 8.41113H15.2465L14.1471 15H12.0259Z" fill="#30C4F3"/>
<path d="M7.71739 8.41113H4.729L5.33412 15H7.71739V8.41113Z" fill="#30C4F3"/>
<path d="M11.6664 8.41113H8.67798V15H11.0612L11.6664 8.41113Z" fill="#30C4F3"/>
<path d="M3.11511 3.7923L5.82977 0.625198L5.10041 0L1.84985 3.7923H3.11511Z" fill="#30C4F3"/>
<path d="M14.5453 3.7923L11.2948 0L10.5654 0.625198L13.2801 3.7923H14.5453Z" fill="#30C4F3"/>
<path d="M0 4.75293V6.13224C0 6.86023 0.590165 7.4504 1.31815 7.4504H15.0771C15.8051 7.4504 16.3953 6.86023 16.3953 6.13224V4.75293H0Z" fill="#30C4F3"/>
</svg>
