<?xml version="1.0" encoding="UTF-8" standalone="no"?>
<svg
   xmlns:dc="http://purl.org/dc/elements/1.1/"
   xmlns:cc="http://creativecommons.org/ns#"
   xmlns:rdf="http://www.w3.org/1999/02/22-rdf-syntax-ns#"
   xmlns:svg="http://www.w3.org/2000/svg"
   xmlns="http://www.w3.org/2000/svg"
   xmlns:sodipodi="http://sodipodi.sourceforge.net/DTD/sodipodi-0.dtd"
   xmlns:inkscape="http://www.inkscape.org/namespaces/inkscape"
   width="14"
   height="15"
   viewBox="0 0 14 15"
   fill="none"
   version="1.1"
   id="svg13"
   sodipodi:docname="close.svg"
   inkscape:version="1.0.2 (1.0.2+r75+1)">
  <metadata
     id="metadata19">
    <rdf:RDF>
      <cc:Work
         rdf:about="">
        <dc:format>image/svg+xml</dc:format>
        <dc:type
           rdf:resource="http://purl.org/dc/dcmitype/StillImage" />
      </cc:Work>
    </rdf:RDF>
  </metadata>
  <defs
     id="defs17" />
  <sodipodi:namedview
     pagecolor="#ffffff"
     bordercolor="#666666"
     borderopacity="1"
     objecttolerance="10"
     gridtolerance="10"
     guidetolerance="10"
     inkscape:pageopacity="0"
     inkscape:pageshadow="2"
     inkscape:window-width="1920"
     inkscape:window-height="1135"
     id="namedview15"
     showgrid="false"
     inkscape:zoom="45.254834"
     inkscape:cx="8.7178687"
     inkscape:cy="10.206226"
     inkscape:window-x="0"
     inkscape:window-y="0"
     inkscape:window-maximized="1"
     inkscape:current-layer="svg13" />
  <mask
     id="path-1-inside-1"
     fill="white">
    <path
       d="M12.3491 0L7.0001 5.34904L1.65106 0L0.000244141 1.65076L7.0001 8.65062L14 1.65076L12.3491 0Z"
       id="path2" />
    <path
       d="M1.65082 14.0351L6.99986 8.68609L12.3489 14.0351L13.9997 12.3844L6.99986 5.38451L1.44315e-07 12.3844L1.65082 14.0351Z"
       id="path4" />
  </mask>
  <g
     id="g855"
     style="fill:#ff8080">
    <path
       id="path11"
       clip-path="none"
       mask="url(#path-1-inside-1)"
       style="mix-blend-mode:screen;fill:#a02c2c;stroke:none;stroke-width:0;stroke-linejoin:round;stroke-miterlimit:4;stroke-dasharray:none;stroke-opacity:1"
       d="M 1.6534972,-0.01681419 0.96090456,0.68674688 0.57341285,1.0554797 -0.01907196,1.6522366 0.67547722,2.3473437 5.3440862,7.0185818 0.66092225,11.699848 l -0.6800475,0.68677 0.45790182,0.459033 0.70660483,0.706663 0.5042529,0.500359 0.6682845,-0.667725 4.6851099,-4.6742466 4.6865863,4.6994726 0.65825,0.655622 0.516915,-0.518722 0.715248,-0.703704 0.445534,-0.458863 -0.79241,-0.793116 L 8.6542587,7.016897 13.307367,2.3719019 14.031917,1.652796 13.431705,1.050996 13.074186,0.68674688 12.367154,-0.02028437 11.660123,0.68674688 7.0175452,5.329325 2.3783007,0.70901017 Z"
       sodipodi:nodetypes="ccccccccccccccccccccccccccccc" />
  </g>
</svg>
