<svg width="37" height="15" viewBox="0 0 37 15" fill="none" xmlns="http://www.w3.org/2000/svg">
<path d="M36.1899 13.8376C36.0518 13.2244 35.8111 12.6389 35.4779 12.1058L32.1157 12.1677C31.9014 12.1716 31.6933 12.0955 31.5321 11.9541C31.3709 11.8128 31.2682 11.6164 31.244 11.4034L31.1794 10.8327L34.3642 10.7597L34.3652 10.7604C33.3645 9.86011 31.7524 9.03155 29.2408 9.14123C28.148 9.18896 25.2916 9.22428 21.8651 9.2489L15.7465 0.319222C15.6471 0.196486 15.5159 0.103446 15.3672 0.0502755C15.2184 -0.00289522 15.058 -0.0141495 14.9033 0.0177427L13.6456 0.276154C13.5272 0.300456 13.4153 0.349382 13.3171 0.419752C13.2189 0.490122 13.1366 0.580362 13.0756 0.684612C13.0145 0.788862 12.9761 0.90479 12.9628 1.02486C12.9494 1.14494 12.9615 1.26648 12.9982 1.38158L15.8838 9.27969C12.6727 9.29089 9.52673 9.29405 7.2296 9.29132L4.03449 4.38281C3.94014 4.23779 3.8043 4.12455 3.64467 4.05783C3.48504 3.99112 3.30902 3.97401 3.13953 4.00876L1.88179 4.26717C1.77098 4.28994 1.66575 4.33432 1.5721 4.39777C1.47844 4.46122 1.39821 4.54249 1.33596 4.63694C1.27372 4.7314 1.23069 4.83719 1.20934 4.94828C1.18798 5.05937 1.18872 5.17357 1.2115 5.28437L1.73112 7.81178L4.20189 7.77007C4.65311 7.77203 5.08572 7.95013 5.40753 8.26642C5.72933 8.58272 5.91488 9.01219 5.92463 9.46331C5.92853 9.68956 5.88783 9.91436 5.80484 10.1249C5.72185 10.3354 5.5982 10.5275 5.44096 10.6902C5.28371 10.8529 5.09595 10.9831 4.8884 11.0732C4.68084 11.1634 4.45757 11.2117 4.23132 11.2156L1.90059 11.2553L1.81259 11.5849L1.66451 12.1397C1.63533 12.249 1.62797 12.3629 1.64285 12.4751C1.65772 12.5872 1.69454 12.6953 1.75119 12.7932C1.80785 12.8911 1.88324 12.9769 1.97305 13.0457C2.06287 13.1145 2.16535 13.1649 2.27464 13.194L8.93224 14.9713C9.00622 14.9908 9.08248 15.0005 9.159 15L17.957 14.9528L25.7456 14.911L35.3483 14.8595C35.4747 14.8588 35.5993 14.8303 35.7134 14.7761C35.8276 14.7219 35.9283 14.6432 36.0087 14.5456C36.089 14.4481 36.1468 14.334 36.1782 14.2116C36.2095 14.0892 36.2135 13.9614 36.1899 13.8373L36.1899 13.8376Z" fill="#30C4F3"/>
<path d="M4.20122 8.63144C4.19627 8.63144 4.19117 8.63144 4.18622 8.63144L0.854222 8.68843C0.741105 8.68938 0.629282 8.71259 0.525136 8.75675C0.420991 8.80091 0.326563 8.86515 0.247244 8.9458C0.0870517 9.10868 -0.0018738 9.32853 2.99489e-05 9.55698C0.00193369 9.78543 0.0945107 10.0038 0.257395 10.164C0.420279 10.3242 0.640128 10.4131 0.868578 10.4112H0.88358L4.21593 10.3542C4.44438 10.3523 4.66272 10.2597 4.82291 10.0968C4.9831 9.93393 5.07203 9.71408 5.07013 9.48563C5.06822 9.25718 4.97564 9.03884 4.81276 8.87865C4.64988 8.71846 4.43003 8.62953 4.20158 8.63144H4.20122Z" fill="#30C4F3"/>
</svg>
