<svg width="35" height="15" viewBox="0 0 35 15" fill="none" xmlns="http://www.w3.org/2000/svg">
<path d="M16.6086 6.66663H9.72201C9.50099 6.66663 9.28903 6.75442 9.13275 6.9107C8.97647 7.06698 8.88867 7.27895 8.88867 7.49996V9.16663H15.3587L16.6086 6.66663Z" fill="#30C4F3"/>
<path d="M28.3337 3.0555C28.3337 2.83449 28.2459 2.62253 28.0896 2.46625C27.9334 2.30997 27.7214 2.22217 27.5004 2.22217H20.9032C20.6821 2.22217 20.4702 2.30997 20.3139 2.46625C20.1576 2.62253 20.0698 2.83449 20.0698 3.0555V4.72217H28.3337V3.0555Z" fill="#30C4F3"/>
<path d="M34.8625 5.93014C34.7866 5.81501 34.6833 5.72051 34.5619 5.65514C34.4404 5.58976 34.3047 5.55554 34.1668 5.55556H32.7779V0.833333C32.7779 0.61232 32.6901 0.400358 32.5338 0.244078C32.3775 0.0877973 32.1656 0 31.9446 0C31.7235 0 31.5116 0.0877973 31.3553 0.244078C31.199 0.400358 31.1112 0.61232 31.1112 0.833333V5.55556H18.6112C18.4565 5.55555 18.3048 5.59865 18.1731 5.68C18.0415 5.76136 17.9351 5.87777 17.8659 6.01618L15.874 10H7.22233V4.93056H7.50011C7.72112 4.93056 7.93308 4.84276 8.08936 4.68648C8.24564 4.5302 8.33344 4.31824 8.33344 4.09722C8.33344 3.87621 8.24564 3.66425 8.08936 3.50797C7.93308 3.35169 7.72112 3.26389 7.50011 3.26389H7.22233V2.98611C7.22233 2.7651 7.13453 2.55314 6.97825 2.39686C6.82197 2.24058 6.61001 2.15278 6.389 2.15278C6.16798 2.15278 5.95602 2.24058 5.79974 2.39686C5.64346 2.55314 5.55566 2.7651 5.55566 2.98611V3.26389H3.889V2.98611C3.889 2.7651 3.8012 2.55314 3.64492 2.39686C3.48864 2.24058 3.27668 2.15278 3.05566 2.15278C2.83465 2.15278 2.62269 2.24058 2.46641 2.39686C2.31013 2.55314 2.22233 2.7651 2.22233 2.98611V3.26389H1.94455C1.72354 3.26389 1.51158 3.35169 1.3553 3.50797C1.19902 3.66425 1.11122 3.87621 1.11122 4.09722C1.11122 4.31824 1.19902 4.5302 1.3553 4.68648C1.51158 4.84276 1.72354 4.93056 1.94455 4.93056H2.22233V10H0.833442C0.701357 9.99998 0.571159 10.0314 0.453586 10.0916C0.336013 10.1517 0.234431 10.239 0.157217 10.3462C0.0800036 10.4534 0.0293699 10.5773 0.00949146 10.7079C-0.010387 10.8385 0.00105915 10.9719 0.0428861 11.0972L1.154 14.4306C1.20937 14.5964 1.31551 14.7407 1.45739 14.8428C1.59927 14.945 1.7697 15 1.94455 15H30.8334C30.9965 15 31.156 14.9521 31.2922 14.8624C31.4283 14.7726 31.5351 14.6448 31.5993 14.4949L34.9327 6.71715C34.987 6.59041 35.0091 6.45216 34.9968 6.3148C34.9846 6.17745 34.9384 6.04528 34.8625 5.93014ZM3.889 4.93056H5.55566V10H3.889V4.93056ZM21.6668 9.65278C21.502 9.65278 21.3408 9.6039 21.2038 9.51234C21.0668 9.42077 20.9599 9.29062 20.8969 9.13835C20.8338 8.98608 20.8173 8.81852 20.8495 8.65687C20.8816 8.49522 20.961 8.34673 21.0775 8.23019C21.1941 8.11365 21.3425 8.03428 21.5042 8.00212C21.6658 7.96997 21.8334 7.98647 21.9857 8.04955C22.1379 8.11262 22.2681 8.21943 22.3597 8.35647C22.4512 8.49351 22.5001 8.65463 22.5001 8.81944C22.5001 9.04046 22.4123 9.25242 22.256 9.4087C22.0997 9.56498 21.8878 9.65278 21.6668 9.65278ZM24.7223 9.65278C24.5575 9.65278 24.3964 9.6039 24.2594 9.51234C24.1223 9.42077 24.0155 9.29062 23.9524 9.13835C23.8894 8.98608 23.8729 8.81852 23.905 8.65687C23.9372 8.49522 24.0165 8.34673 24.1331 8.23019C24.2496 8.11365 24.3981 8.03428 24.5598 8.00212C24.7214 7.96997 24.889 7.98647 25.0412 8.04955C25.1935 8.11262 25.3237 8.21943 25.4152 8.35647C25.5068 8.49351 25.5557 8.65463 25.5557 8.81944C25.5557 9.04046 25.4679 9.25242 25.3116 9.4087C25.1553 9.56498 24.9433 9.65278 24.7223 9.65278ZM27.7779 9.65278C27.6131 9.65278 27.452 9.6039 27.3149 9.51234C27.1779 9.42077 27.0711 9.29062 27.008 9.13835C26.9449 8.98608 26.9284 8.81852 26.9606 8.65687C26.9927 8.49522 27.0721 8.34673 27.1886 8.23019C27.3052 8.11365 27.4537 8.03428 27.6153 8.00212C27.777 7.96997 27.9445 7.98647 28.0968 8.04955C28.2491 8.11262 28.3792 8.21943 28.4708 8.35647C28.5623 8.49351 28.6112 8.65463 28.6112 8.81944C28.6112 9.04046 28.5234 9.25242 28.3671 9.4087C28.2109 9.56498 27.9989 9.65278 27.7779 9.65278Z" fill="#30C4F3"/>
</svg>
