<svg width="15" height="15" viewBox="0 0 15 15" fill="none" xmlns="http://www.w3.org/2000/svg">
<path d="M7.50001 0C3.36456 0 0 3.36456 0 7.50001C0 11.6355 3.36456 15 7.50001 15C11.6355 15 15 11.6355 15 7.50001C15 3.36456 11.6354 0 7.50001 0ZM7.98787 11.95C7.63155 12.0094 6.92254 12.1577 6.5625 12.1875C6.25775 12.2128 5.97016 12.0383 5.79484 11.7879C5.61907 11.5375 5.57695 11.2171 5.68131 10.9296L7.099 7.03127H5.625C5.62374 6.21898 6.23302 5.62171 7.0123 5.39249C7.38419 5.28307 8.07705 5.13334 8.43749 5.15628C8.65344 5.17002 9.02984 5.3055 9.20516 5.55592C9.38093 5.80632 9.42304 6.12676 9.31869 6.41423L7.901 10.3125H9.37455C9.37483 11.1239 8.78826 11.8166 7.98787 11.95ZM8.43749 4.68752C7.91971 4.68752 7.49999 4.26773 7.49999 3.75001C7.49999 3.23222 7.91971 2.8125 8.43749 2.8125C8.95528 2.8125 9.375 3.23222 9.375 3.75001C9.375 4.26776 8.95531 4.68752 8.43749 4.68752Z" fill="#30C4F3"/>
</svg>
