<svg width="27" height="25" viewBox="0 0 27 25" fill="none" xmlns="http://www.w3.org/2000/svg">
<path d="M4.46434 8.92773H0.89288C0.399806 8.92773 0 9.32748 0 9.82061V24.1062C0 24.5993 0.399747 24.9991 0.89288 24.9991H4.46428C4.95736 24.9991 5.35716 24.5994 5.35716 24.1062V9.82056C5.35716 9.32748 4.95748 8.92773 4.46434 8.92773Z" fill="#27AE60"/>
<path d="M26.7678 11.2953C26.6103 9.91026 25.3165 8.92857 23.9226 8.92857H16.9616C17.5532 7.86929 17.8707 4.87324 17.8566 3.64935C17.8333 1.62346 16.1556 0 14.1296 0H13.3929C12.8994 0 12.5 0.399331 12.5 0.892881C12.5 2.95756 11.696 6.68425 10.1798 8.20054C9.15926 9.22109 8.28681 9.59089 7.14282 10.1626V23.5599C8.89431 24.1437 11.1181 25 14.5077 25H20.3483C22.2728 25 23.7716 23.2176 23.0259 21.3344C24.162 21.0249 24.9999 19.9829 24.9999 18.75C24.9999 18.4021 24.9328 18.069 24.8116 17.763C26.7262 17.2413 27.4309 14.8772 26.1021 13.3929C26.5903 12.8474 26.8595 12.1014 26.7678 11.2953Z" fill="#27AE60"/>
</svg>
