<svg width="26" height="26" viewBox="0 0 26 26" fill="none" xmlns="http://www.w3.org/2000/svg">
<g clip-path="url(#clip0)">
<path d="M25.839 4.958C25.839 8.885 24.127 11.738 24.055 11.857C23.91 12.094 23.659 12.224 23.4 12.224C23.264 12.224 23.127 12.188 23.003 12.113C22.641 11.893 22.525 11.422 22.744 11.06C22.76 11.034 24.305 8.437 24.305 4.958C24.305 2.974 23.015 1.534 21.237 1.534C19.545 1.534 18.169 2.91 18.169 4.603C18.169 5.324 18.518 7.156 18.652 7.801C18.739 8.216 18.472 8.622 18.057 8.709C17.642 8.794 17.236 8.529 17.15 8.115C17.097 7.862 16.633 5.613 16.633 4.603C16.633 2.065 18.698 0 21.237 0C23.86 0 25.839 2.131 25.839 4.958ZM21.367 6.165C21.672 8.714 22.114 13.681 21.606 14.187L10.46 25.334C9.775 26.02 8.662 26.02 7.976 25.333L0.522999 17.881C-0.163001 17.196 -0.163001 16.083 0.522999 15.397L11.67 4.251C11.847 4.074 13.775 4.066 15.943 4.179C15.931 4.322 15.9 4.457 15.9 4.603C15.9 5.159 16.023 6.021 16.152 6.779C15.925 7.116 15.792 7.521 15.792 7.958C15.792 9.122 16.736 10.066 17.9 10.066C19.064 10.066 20.008 9.122 20.008 7.958C20.008 7.241 19.649 6.609 19.102 6.229C18.99 5.562 18.9 4.918 18.9 4.603C18.9 4.535 18.914 4.472 18.92 4.405C19.187 4.433 19.45 4.462 19.699 4.493C21.172 4.674 21.187 4.671 21.367 6.165ZM15.426 14.507C15.253 14.026 14.965 13.449 14.34 12.785L15.186 11.938L14.244 10.997L13.331 11.911C12.109 11.074 10.849 11.142 9.994 11.997C9.062 12.929 9.282 14.112 9.966 15.487C10.436 16.439 10.522 16.987 10.157 17.352C9.782 17.727 9.177 17.564 8.628 17.016C8.004 16.392 7.638 15.621 7.456 14.996L6.042 15.834C6.206 16.4 6.648 17.207 7.272 17.871L6.35 18.794L7.291 19.736L8.282 18.746C9.589 19.668 10.907 19.544 11.762 18.689C12.637 17.812 12.714 16.832 11.964 15.275C11.444 14.159 11.319 13.611 11.627 13.304C11.897 13.034 12.377 12.957 13.002 13.582C13.695 14.275 13.925 14.948 14.05 15.304L15.426 14.507Z" fill="#EB5757"/>
</g>
<defs>
<clipPath id="clip0">
<rect width="25.848" height="25.848" fill="white"/>
</clipPath>
</defs>
</svg>
