<svg width="25" height="25" viewBox="0 0 25 25" fill="none" xmlns="http://www.w3.org/2000/svg">
<g clip-path="url(#clip0)">
<path d="M6.9265 13.6791C9.10947 12.9297 10.9149 13.5593 11.8895 14.0738H16.9757C17.9205 14.0738 18.7456 14.6009 19.1816 15.3799L20.7378 14.2716V1.06641H15.4568V9.63173H10.3271V1.06641H5.0462V14.7682C5.52384 14.347 6.14084 13.9488 6.9265 13.6791Z" fill="#30C4F3"/>
<path d="M11.7924 1.06641H13.9911V8.1663H11.7924V1.06641Z" fill="#30C4F3"/>
<path d="M24.6612 15.5163C24.3786 15.1195 23.9584 14.8565 23.4779 14.7758C22.9974 14.6948 22.5143 14.8061 22.1175 15.0888L19.4909 16.9595C19.3372 18.2287 18.2682 19.2149 16.9755 19.2149H13.8222V17.7494H16.9755C17.5653 17.7494 18.0451 17.2539 18.0451 16.6448C18.0451 16.0357 17.5653 15.5402 16.9755 15.5402H11.5079L11.5067 15.5403C10.6885 14.9816 9.17898 14.4562 7.40224 15.0661C5.84898 15.5993 5.19681 16.7976 5.03195 17.1565V23.9338H15.9654L24.2344 18.0595C24.6305 17.7774 24.8935 17.3572 24.9743 16.8768C25.0551 16.3963 24.9439 15.9131 24.6612 15.5163Z" fill="#30C4F3"/>
<path d="M0 15.8379H3.56648V23.9332H0V15.8379Z" fill="#30C4F3"/>
</g>
<defs>
<clipPath id="clip0">
<rect width="25" height="25" fill="white"/>
</clipPath>
</defs>
</svg>
