<svg width="40" height="82" viewBox="0 0 40 82" fill="none" xmlns="http://www.w3.org/2000/svg">
<path opacity="0.1" d="M38.9183 72.9381C37.0121 72.191 35.172 71.2554 33.4185 70.1426C39.2678 64.9876 40.6034 55.7662 36.5021 48.8556C36.0142 48.0347 35.0154 47.8053 34.2708 48.3431C28.9504 52.195 26.5216 59.4218 28.2783 66.1717C26.5799 64.5828 25.027 62.8132 23.6426 60.8899C22.6785 59.5443 21.7986 58.1283 21.0084 56.6515C27.9281 54.3919 32.2938 46.8654 31.2565 38.9835C31.1274 38.0106 30.3081 37.3382 29.4274 37.4815C23.9637 38.3772 19.4351 42.6191 17.7461 48.423C16.8268 45.0602 16.3459 41.5706 16.3199 38.0584C23.9795 38.0106 30.2892 31.4058 30.7378 22.9653C30.789 21.9845 30.1097 21.1436 29.2212 21.0872C25.0679 20.8378 21.0178 22.5683 18.0994 25.839C18.5284 24.4135 19.0337 23.0175 19.6114 21.6579C19.62 21.6249 19.6279 21.5919 19.6334 21.558C26.4791 17.8312 29.5265 8.87826 26.5972 1.09805C26.2564 0.191116 25.3143 -0.239766 24.4918 0.135518C17.2471 3.46096 13.707 12.5373 16.497 20.6311C16.1208 21.5337 15.7769 22.445 15.4652 23.3641C13.7329 18.2743 9.77724 14.5049 4.9621 13.3547C4.09242 13.148 3.23533 13.7587 3.04722 14.7195C1.42985 22.9775 5.916 31.199 13.2859 33.482C13.0529 35.9526 13.0262 38.4415 13.2056 40.9173C12.8207 40.4091 12.4083 39.9278 11.9707 39.4761C9.14918 36.5824 5.39261 35.0613 1.54554 35.2542C0.656181 35.2941 -0.034844 36.1229 0.00136004 37.1045C0.327196 45.6779 6.71249 52.4478 14.4869 52.4617C14.6868 52.4617 14.8883 52.4617 15.0898 52.4478C15.2488 52.433 15.4046 52.3913 15.5526 52.3244C15.9555 53.4737 16.3876 54.6126 16.8874 55.7263C16.2955 55.4561 15.6887 55.2285 15.0701 55.0435C11.3482 53.9593 7.38777 54.5648 4.07274 56.7244C3.30537 57.2213 3.04722 58.3107 3.49741 59.1586C5.43354 62.8289 8.6195 65.4924 12.3446 66.5539C13.548 66.9049 14.7868 67.0847 16.0311 67.0882C18.3726 67.076 20.6754 66.4349 22.7414 65.2178C23.752 66.4358 24.8287 67.5851 25.9652 68.6588C20.6369 68.4408 15.6289 71.463 12.9199 76.532C12.4689 77.3781 12.7239 78.4683 13.4905 78.967C20.1536 83.2984 28.7245 81.0832 32.951 73.9363C34.5306 74.851 36.1676 75.6398 37.8495 76.2948C38.0211 76.3617 38.2021 76.3956 38.3847 76.3965C39.171 76.3982 39.8439 75.7727 39.9769 74.917C40.1091 74.0605 39.6621 73.2239 38.9199 72.9381H38.9183ZM31.1809 59.1959C31.6626 56.6115 32.8801 54.2642 34.6565 52.4973C36.6792 57.429 35.5836 63.238 31.9467 66.8693C30.9511 64.4655 30.6804 61.7725 31.1746 59.1872L31.1809 59.1959ZM28.1941 41.4298C28.1382 46.8367 24.9373 51.5895 20.2622 53.207C20.3118 47.7984 23.512 43.0396 28.1878 41.4203L28.1941 41.4298ZM7.74903 24.8444C6.44725 22.6317 5.81998 20.0169 5.96007 17.383C10.5281 19.3332 13.4401 24.3066 13.1749 29.7048C10.9429 28.7657 9.04135 27.0622 7.74903 24.8444ZM3.42973 38.8767C8.29917 39.4996 12.2493 43.5174 13.2103 48.8235C8.34167 48.1971 4.39307 44.1811 3.42973 38.8767ZM27.285 24.6697C26.2414 29.9533 22.2362 33.8955 17.3612 34.4358C18.4025 29.1506 22.4093 25.2083 27.285 24.6697ZM24.1581 4.29058C25.3072 9.55064 23.2514 15.0288 19.0699 17.8521C17.9263 12.592 19.9805 7.11824 24.1581 4.29058ZM7.27837 58.9466C11.8409 56.9694 17.0385 58.4653 20.145 62.6508C15.5817 64.6219 10.388 63.126 7.27837 58.9466ZM16.6985 76.7379C19.8152 72.5654 25.0105 71.0808 29.569 73.0606C26.4539 77.2365 21.2571 78.7229 16.6969 76.7413L16.6985 76.7379Z" fill="white"/>
</svg>
