<svg width="20" height="20" viewBox="0 0 20 20" fill="none" xmlns="http://www.w3.org/2000/svg">
<g clip-path="url(#clip0)">
<path d="M7.05975 4.72656H2.94141C2.61655 4.72656 2.35303 4.98901 2.35303 5.3125V12.3438C2.35303 12.6672 2.6167 12.9297 2.94141 12.9297H7.05975C7.05975 12.393 7.05975 14.7591 7.05975 4.72656Z" fill="#333333"/>
<path d="M1.17628 11.1703V6.4859C-0.392632 7.66205 -0.391716 9.99481 1.17628 11.1703Z" fill="#333333"/>
<path d="M15.8849 1.21094C15.0644 1.21094 14.373 1.77124 14.176 2.52777L8.23639 4.49966V13.1566L14.176 15.1285C14.373 15.885 15.0644 16.4453 15.8849 16.4453C16.8581 16.4453 17.6498 15.6567 17.6498 14.6875V2.96875C17.6498 1.99951 16.8581 1.21094 15.8849 1.21094V1.21094Z" fill="#333333"/>
<path d="M18.8266 7.17102V10.4852C20.3902 9.93393 20.3922 7.72308 18.8266 7.17102Z" fill="#333333"/>
<path d="M7.42444 14.1016H3.87097L4.53229 17.3941C4.98685 19.6568 8.39506 18.9352 7.94889 16.7137L7.42444 14.1016Z" fill="#333333"/>
</g>
<defs>
<clipPath id="clip0">
<rect width="20" height="20" fill="white"/>
</clipPath>
</defs>
</svg>
