<svg width="20" height="20" viewBox="0 0 20 20" fill="none" xmlns="http://www.w3.org/2000/svg">
<g clip-path="url(#clip0)">
<path d="M5.54117 10.9436C7.28754 10.3441 8.73187 10.8477 9.51156 11.2593H13.5805C14.3363 11.2593 14.9964 11.681 15.3452 12.3042L16.5902 11.4175V0.853429H12.3654V7.70569H8.26168V0.853429H4.03693V11.8149C4.41903 11.4779 4.91263 11.1593 5.54117 10.9436Z" fill="#333333"/>
<path d="M9.43402 0.853429H11.193V6.53334H9.43402V0.853429Z" fill="#333333"/>
<path d="M19.729 12.4126C19.5029 12.0952 19.1667 11.8848 18.7823 11.8202C18.3979 11.7554 18.0115 11.8445 17.694 12.0706L15.5927 13.5672C15.4697 14.5825 14.6146 15.3714 13.5804 15.3714H11.0578V14.1991H13.5804C14.0523 14.1991 14.4361 13.8026 14.4361 13.3154C14.4361 12.8281 14.0523 12.4317 13.5804 12.4317H9.20633L9.20539 12.4318C8.55083 11.9848 7.3432 11.5645 5.92181 12.0524C4.6792 12.479 4.15746 13.4376 4.02557 13.7247V19.1466H12.7723L19.3875 14.4472C19.7044 14.2215 19.9148 13.8853 19.9795 13.501C20.0441 13.1166 19.9551 12.7301 19.729 12.4126Z" fill="#333333"/>
<path d="M0 12.6703H2.85318V19.1466H0V12.6703Z" fill="#333333"/>
</g>
<defs>
<clipPath id="clip0">
<rect width="20" height="20" fill="white"/>
</clipPath>
</defs>
</svg>
