<svg width="20" height="20" viewBox="0 0 20 20" fill="none" xmlns="http://www.w3.org/2000/svg">
<path d="M4.6738 4.05525L12.6468 1.87894L12.2246 1.02549C11.9484 0.470744 11.2746 0.241659 10.7198 0.517909L3.58228 4.05525H4.6738Z" fill="#333333"/>
<path d="M15.1218 1.94183C15.023 1.94183 14.9242 1.95531 14.8254 1.98226L12.9523 2.49433L7.23187 4.05525H13.7249H16.5547L16.2044 2.77058C16.0696 2.26974 15.6159 1.94183 15.1218 1.94183Z" fill="#333333"/>
<path d="M17.7249 4.84132H17.4688H17.1207H16.7726H14.1157H4.35261H3.07243H1.99439H1.7945H1.12521C0.770354 4.84132 0.453678 5.00528 0.247052 5.26356C0.152723 5.38259 0.0808535 5.51959 0.0404267 5.67007C0.0157215 5.7644 0 5.86322 0 5.96429V6.09904V7.37922V18.4764C0 19.0963 0.503088 19.5993 1.12296 19.5993H17.7226C18.3425 19.5993 18.8456 19.0963 18.8456 18.4764V15.3433H12.1819C11.1286 15.3433 10.2729 14.4876 10.2729 13.4342V12.4056V12.0575V11.7094V10.9368C10.2729 10.4202 10.4795 9.95084 10.8141 9.60721C11.1106 9.30174 11.5081 9.09511 11.9528 9.04346C12.027 9.0345 12.1033 9.02998 12.1797 9.02998H17.9113H18.2594H18.6075H18.8456V5.96429C18.8478 5.34441 18.3448 4.84132 17.7249 4.84132Z" fill="#333333"/>
<path d="M19.6339 10.1035C19.5216 10.0002 19.3891 9.92162 19.2408 9.86996C19.1263 9.8318 19.005 9.80934 18.877 9.80934H18.8478H18.8253H18.4772H17.2217H12.1819C11.562 9.80934 11.0589 10.3124 11.0589 10.9323V11.4915V11.8396V12.1878V13.432C11.0589 14.0519 11.562 14.555 12.1819 14.555H18.8478H18.877C19.005 14.555 19.1263 14.5325 19.2408 14.4943C19.3891 14.4449 19.5216 14.3641 19.6339 14.2608C19.8585 14.0564 20 13.7599 20 13.432V10.9323C20 10.6044 19.8585 10.3079 19.6339 10.1035ZM14.5266 12.4056C14.5266 12.7156 14.2751 12.9671 13.9651 12.9671H13.5923C13.2824 12.9671 13.0308 12.7156 13.0308 12.4056V12.0328C13.0308 11.8531 13.1139 11.6936 13.2464 11.5926C13.343 11.5184 13.4621 11.4713 13.5923 11.4713H13.6866H13.9651C14.2751 11.4713 14.5266 11.7228 14.5266 12.0328V12.4056Z" fill="#333333"/>
</svg>
