<svg width="20" height="20" viewBox="0 0 20 20" fill="none" xmlns="http://www.w3.org/2000/svg">
<path d="M10.0319 7.07031C8.41663 7.07031 7.10254 8.38455 7.10254 10C7.10254 11.6154 8.41663 12.9297 10.0319 12.9297C11.6471 12.9297 12.9612 11.6154 12.9612 10C12.9612 8.38455 11.6471 7.07031 10.0319 7.07031Z" fill="#333333"/>
<path d="M19.6535 12.1614L18.5612 11.5308C17.3831 10.8505 17.382 9.14993 18.5612 8.46924L19.6535 7.83859C19.9336 7.6767 20.0296 7.31842 19.8678 7.03827L17.5146 2.96188C17.353 2.68188 16.9945 2.5856 16.7142 2.74734L15.6219 3.37799C14.444 4.05807 12.971 3.20908 12.971 1.84723V0.585938C12.971 0.262299 12.7087 0 12.3851 0H7.67852C7.35503 0 7.09258 0.262299 7.09258 0.585938V1.84723C7.09258 3.2077 5.62102 4.05884 4.44167 3.37799L3.34945 2.74734C3.06945 2.5856 2.71087 2.68158 2.54897 2.96188L0.195759 7.03827C0.0340161 7.31842 0.129994 7.67685 0.410145 7.83859L1.50237 8.46924C2.6805 9.14948 2.68157 10.8501 1.50237 11.5308L0.410298 12.1614C0.129994 12.3233 0.0340161 12.6816 0.195759 12.9617L2.54897 17.0381C2.71056 17.3181 3.06914 17.4146 3.34945 17.2527L4.44167 16.622C5.6195 15.9418 7.09258 16.7908 7.09258 18.1528V19.4141C7.09258 19.7377 7.35488 20 7.67852 20H12.3849C12.7086 20 12.9709 19.7377 12.9709 19.4141V18.1528C12.9709 16.7926 14.4424 15.941 15.6219 16.622L16.7142 17.2527C16.9942 17.4144 17.3527 17.3184 17.5145 17.0381L19.8678 12.9617C20.0296 12.6816 19.9336 12.3233 19.6535 12.1614ZM10.0319 14.1016C7.77038 14.1016 5.93062 12.2617 5.93062 10C5.93062 7.73834 7.77038 5.89844 10.0319 5.89844C12.2932 5.89844 14.133 7.73834 14.133 10C14.133 12.2617 12.2932 14.1016 10.0319 14.1016Z" fill="#333333"/>
</svg>
