<svg width="20" height="20" viewBox="0 0 20 20" fill="none" xmlns="http://www.w3.org/2000/svg">
<g clip-path="url(#clip0)">
<path d="M12.4999 10.8334C12.0391 10.8334 11.6666 11.2068 11.6666 11.6667V15.0001C11.6666 15.4592 11.2932 15.8334 10.8332 15.8334H8.33319V3.33349C8.33319 2.62183 7.87986 1.986 7.19826 1.74934L6.95153 1.66679H10.8332C11.2932 1.66679 11.6666 2.04093 11.6666 2.50022V5.0002C11.6666 5.46009 12.0391 5.83347 12.4999 5.83347C12.9607 5.83347 13.3331 5.46009 13.3331 5.0002V2.50022C13.3331 1.12191 12.2115 0.000244141 10.8332 0.000244141H1.87498C1.84324 0.000244141 1.81669 0.0144347 1.78587 0.0185545C1.74574 0.0151976 1.70744 0.000244141 1.6667 0.000244141C0.74752 0.000244141 0 0.747612 0 1.66679V16.6666C0 17.3783 0.453334 18.0141 1.13494 18.2508L6.14999 19.9225C6.31997 19.975 6.48904 20 6.66665 20C7.58583 20 8.33319 19.2525 8.33319 18.3333V17.5001H10.8332C12.2115 17.5001 13.3331 16.3784 13.3331 15.0001V11.6667C13.3331 11.2068 12.9607 10.8334 12.4999 10.8334Z" fill="#333333"/>
<path d="M19.7557 7.74433L16.4223 4.41108C16.1841 4.17274 15.8257 4.10102 15.5141 4.23011C15.2033 4.35935 14.9999 4.66346 14.9999 5.00021V7.50019H11.6666C11.2066 7.50019 10.8332 7.87342 10.8332 8.33346C10.8332 8.79351 11.2066 9.16674 11.6666 9.16674H14.9999V11.6667C14.9999 12.0035 15.2033 12.3076 15.5141 12.4368C15.8257 12.5659 16.1841 12.4942 16.4223 12.256L19.7557 8.9226C20.0814 8.59683 20.0814 8.0701 19.7557 7.74433Z" fill="#333333"/>
</g>
<defs>
<clipPath id="clip0">
<rect width="20" height="20" fill="white"/>
</clipPath>
</defs>
</svg>
