<svg width="20" height="20" viewBox="0 0 20 20" fill="none" xmlns="http://www.w3.org/2000/svg">
<g clip-path="url(#clip0)">
<path d="M19.4135 0H13.7497C13.5471 0 13.3583 0.105133 13.2517 0.277405L10.689 4.41711L10.9101 4.77402C12.8788 4.99176 14.6399 5.90775 15.9407 7.26791L19.9108 0.895691C20.1537 0.505829 19.872 0 19.4135 0Z" fill="#333333"/>
<path d="M9.51003 4.73831L6.74849 0.277405C6.64183 0.105133 6.45323 0 6.25045 0H0.58684C0.127551 0 -0.153058 0.506592 0.0895563 0.895691L4.05959 7.26791C5.45211 5.81177 7.37227 4.8645 9.51003 4.73831Z" fill="#333333"/>
<path d="M9.99997 5.89554C6.11356 5.89554 2.95178 9.05762 2.95178 12.9442C2.95178 16.8307 6.11356 19.9927 9.99997 19.9927C13.8862 19.9927 17.048 16.8307 17.048 12.9442C17.048 9.05762 13.8862 5.89554 9.99997 5.89554ZM13.9694 12.5299L12.6155 14.1475L12.7601 16.2521C12.7899 16.6856 12.3549 16.996 11.9568 16.8358L9.99997 16.0478L8.04318 16.8358C7.64233 16.9971 7.21021 16.683 7.23981 16.2521L7.38446 14.1475L6.0304 12.5299C5.75314 12.1986 5.9184 11.6904 6.33725 11.5854L8.38345 11.0725L9.50345 9.28497C9.73264 8.91891 10.2672 8.91891 10.4965 9.28497L11.6165 11.0725L13.6625 11.5854C14.0815 11.6904 14.2466 12.1986 13.9694 12.5299Z" fill="#333333"/>
<path d="M10.7487 11.8947L10 10.6996L9.25125 11.8947C9.17084 12.023 9.04404 12.1152 8.89709 12.1519L7.5293 12.4948L8.43445 13.5762C8.53149 13.6923 8.58002 13.8414 8.56964 13.9925L8.4729 15.3995L9.78119 14.8727C9.92157 14.8163 10.0784 14.8163 10.2188 14.8727L11.5269 15.3995L11.4302 13.9925C11.4198 13.8414 11.4684 13.6923 11.5656 13.5762L12.4707 12.4948L11.1028 12.1519C10.956 12.1152 10.829 12.023 10.7487 11.8947Z" fill="#333333"/>
</g>
<defs>
<clipPath id="clip0">
<rect width="20" height="20" fill="white"/>
</clipPath>
</defs>
</svg>
