<svg width="20" height="16" viewBox="0 0 20 16" fill="none" xmlns="http://www.w3.org/2000/svg">
<path d="M20 3.88379V0.939453C20 0.615859 19.7377 0.353516 19.4141 0.353516H0.585938C0.262344 0.353516 0 0.615859 0 0.939453V3.88379H20Z" fill="#333333"/>
<path d="M8.82324 8.59082H11.1768C11.5025 8.59082 11.7676 8.32578 11.7676 8C11.7676 7.67422 11.5025 7.40918 11.1768 7.40918H8.82324C8.49746 7.40918 8.23242 7.67422 8.23242 8C8.23242 8.32578 8.49746 8.59082 8.82324 8.59082Z" fill="#333333"/>
<path d="M1.17676 5.05566V15.0605C1.17676 15.3841 1.4391 15.6465 1.7627 15.6465H18.2373C18.5609 15.6465 18.8232 15.3841 18.8232 15.0605V5.05566H1.17676ZM8.82324 6.2373H11.1768C12.1487 6.2373 12.9395 7.02805 12.9395 8C12.9395 8.97195 12.1487 9.7627 11.1768 9.7627H8.82324C7.85129 9.7627 7.06055 8.97195 7.06055 8C7.06055 7.02805 7.85129 6.2373 8.82324 6.2373Z" fill="#333333"/>
</svg>
