<svg width="20" height="20" viewBox="0 0 20 20" fill="none" xmlns="http://www.w3.org/2000/svg">
<g clip-path="url(#clip0)">
<path d="M18.0896 15.8786C19.3286 14.1786 20 12.133 20 9.99954C20 4.47296 15.5275 0 10 0C4.47311 0 0 4.47235 0 9.99954C0 12.1324 0.671082 14.1774 1.90933 15.8771C5.8989 10.3894 14.0944 10.3845 18.0896 15.8786ZM6.48438 5.89813C6.48438 3.95981 8.06152 2.38266 10 2.38266C11.9385 2.38266 13.5156 3.95981 13.5156 5.89813V7.07001C13.5156 9.00848 11.9385 10.5855 10 10.5855C8.06152 10.5855 6.48438 9.00848 6.48438 7.07001V5.89813Z" fill="#30C4F3"/>
<path d="M10 9.4136C11.2924 9.4136 12.3438 8.36227 12.3438 7.07001V5.89813C12.3438 4.60587 11.2924 3.55453 10 3.55453C8.70758 3.55453 7.65625 4.60587 7.65625 5.89813V7.07001C7.65625 8.36227 8.70758 9.4136 10 9.4136Z" fill="#30C4F3"/>
<path d="M2.68585 16.8175C6.64246 21.0597 13.3565 21.0629 17.3167 16.8146C13.8255 11.6273 6.19583 11.651 2.68585 16.8175Z" fill="#30C4F3"/>
</g>
<defs>
<clipPath id="clip0">
<rect width="20" height="20" fill="white"/>
</clipPath>
</defs>
</svg>
