<svg width="20" height="20" viewBox="0 0 20 20" fill="none" xmlns="http://www.w3.org/2000/svg">
<path d="M9.9569 2.92969C8.99184 2.92969 8.20667 3.71826 8.20667 4.6875C8.20667 5.65674 8.99184 6.44531 9.9569 6.44531C10.922 6.44531 11.7071 5.65674 11.7071 4.6875C11.7071 3.71826 10.922 2.92969 9.9569 2.92969Z" fill="#333333"/>
<path d="M9.95691 0C7.38336 0 5.28961 2.10281 5.28961 4.6875C5.28961 5.57388 5.53741 6.43738 6.00642 7.1846L9.95691 13.5156L13.9074 7.1846C14.3764 6.43738 14.6242 5.57388 14.6242 4.6875C14.6242 2.10281 12.5305 0 9.95691 0ZM9.95691 7.61719C8.34857 7.61719 7.03985 6.3028 7.03985 4.6875C7.03985 3.0722 8.34857 1.75781 9.95691 1.75781C11.5652 1.75781 12.874 3.0722 12.874 4.6875C12.874 6.3028 11.5652 7.61719 9.95691 7.61719Z" fill="#333333"/>
<path d="M7.11749 20H12.7944L12.3457 16.4453H7.5549L7.11749 20Z" fill="#333333"/>
<path d="M7.70074 15.2729H9.681L8.02846 12.6406L7.70074 15.2729Z" fill="#333333"/>
<path d="M13.3729 15.2734H17.9692L16.5107 11.7578H12.924L13.3729 15.2734Z" fill="#333333"/>
<path d="M1.94458 15.2734H6.52497L6.96253 11.7578H3.40311L1.94458 15.2734Z" fill="#333333"/>
<path d="M10.2328 15.2744H12.196L11.8644 12.6758L10.2328 15.2744Z" fill="#333333"/>
<path d="M6.37909 16.4453H1.45838L0 20H5.94169L6.37909 16.4453Z" fill="#333333"/>
<path d="M18.4554 16.4453H13.5224L13.9712 20H19.9138L18.4554 16.4453Z" fill="#333333"/>
</svg>
