<svg width="20" height="20" viewBox="0 0 20 20" fill="none" xmlns="http://www.w3.org/2000/svg">
<path d="M17.6514 5.9375H20V14.1406H17.6514V5.9375Z" fill="#333333"/>
<path d="M17.0642 1.25C15.4454 1.25 14.1284 2.56424 14.1284 4.17969V4.76562H20V4.17969C20 2.56424 18.683 1.25 17.0642 1.25Z" fill="#333333"/>
<path d="M16.5756 18.5672C16.8072 18.914 17.3202 18.9154 17.5528 18.5672L19.727 15.3125H14.4014L16.5756 18.5672Z" fill="#333333"/>
<path d="M14.1284 5.9375H16.4771V14.1406H14.1284V5.9375Z" fill="#333333"/>
<path d="M8.25943 5.27344V1.17188H0.587158C0.262909 1.17188 0 1.43417 0 1.75781V18.2422C0 18.5658 0.262909 18.8281 0.587158 18.8281H12.3303C12.654 18.8281 12.9166 18.5669 12.9175 18.244L12.9549 5.85938H8.84659C8.52234 5.85938 8.25943 5.59708 8.25943 5.27344ZM10.0209 16.4453H2.97501C2.65076 16.4453 2.38785 16.183 2.38785 15.8594C2.38785 15.5357 2.65076 15.2734 2.97501 15.2734H10.0209C10.3452 15.2734 10.6081 15.5357 10.6081 15.8594C10.6081 16.183 10.3452 16.4453 10.0209 16.4453ZM10.0209 14.1016H2.97501C2.65076 14.1016 2.38785 13.8393 2.38785 13.5156C2.38785 13.192 2.65076 12.9297 2.97501 12.9297H10.0209C10.3452 12.9297 10.6081 13.192 10.6081 13.5156C10.6081 13.8393 10.3452 14.1016 10.0209 14.1016ZM10.0209 11.7578H2.97501C2.65076 11.7578 2.38785 11.4955 2.38785 11.1719C2.38785 10.8482 2.65076 10.5859 2.97501 10.5859H10.0209C10.3452 10.5859 10.6081 10.8482 10.6081 11.1719C10.6081 11.4955 10.3452 11.7578 10.0209 11.7578ZM10.6081 8.82812C10.6081 9.15176 10.3452 9.41406 10.0209 9.41406H2.97501C2.65076 9.41406 2.38785 9.15176 2.38785 8.82812C2.38785 8.50449 2.65076 8.24219 2.97501 8.24219H10.0209C10.3452 8.24219 10.6081 8.50449 10.6081 8.82812Z" fill="#333333"/>
<path d="M9.43372 1.51505V4.6875H12.6127L9.43372 1.51505Z" fill="#333333"/>
</svg>
