<svg width="20" height="20" viewBox="0 0 20 20" fill="none" xmlns="http://www.w3.org/2000/svg">
<path d="M18.6975 5.46167L17.5 4.80833V2.5C17.5 1.12167 16.3783 0 15 0H5C3.62167 0 2.5 1.12167 2.5 2.5V4.80833L1.30333 5.46167C0.499167 5.89917 0 6.74 0 7.65667V16.6667C0 18.045 1.12167 19.1667 2.5 19.1667H17.5C18.8783 19.1667 20 18.045 20 16.6667V7.65667C20 6.74 19.5008 5.89917 18.6975 5.46167ZM1.66667 8.6975V7.65667C1.66667 7.35083 1.83333 7.07083 2.10083 6.925L2.5 6.7075V9.13333L1.66667 8.6975ZM9.51417 12.7958L4.16667 10.0033V2.5C4.16667 2.04083 4.54083 1.66667 5 1.66667H15C15.4592 1.66667 15.8333 2.04083 15.8333 2.5V10.0033L10.4883 12.795C10.1875 12.9508 9.8125 12.9508 9.51417 12.7958ZM18.3333 8.6975L17.5 9.1325V6.70667L17.8992 6.92417C18.1667 7.07083 18.3333 7.35083 18.3333 7.65667V8.6975Z" fill="#333333"/>
<path d="M8.54169 10.2292C7.50835 10.2292 6.66669 9.38834 6.66669 8.35417C6.66669 7.6975 7.01252 7.0875 7.56919 6.76417C7.86752 6.59084 8.25002 6.6925 8.42335 6.99C8.59669 7.28834 8.49585 7.67084 8.19752 7.84417C8.02169 7.94667 7.91669 8.1375 7.91669 8.35417C7.91669 8.69917 8.19752 8.97917 8.54169 8.97917C8.88585 8.97917 9.16669 8.69834 9.16669 8.35417C9.16669 8.265 9.14919 8.18834 9.11419 8.12167C8.95335 7.81667 9.06919 7.43834 9.37419 7.27667C9.67835 7.11417 10.0567 7.23167 10.2192 7.53667C10.35 7.785 10.4167 8.06 10.4167 8.35417C10.4167 9.38834 9.57502 10.2292 8.54169 10.2292Z" fill="#333333"/>
<path d="M14.375 9.8325C14.3167 9.8325 14.2567 9.82417 14.1992 9.8075L5.44917 7.24584C5.18333 7.1675 5 6.92334 5 6.64584V5.39584C5 5.11667 5.185 4.87167 5.45333 4.795L14.2033 2.295C14.3908 2.2425 14.5958 2.27834 14.7508 2.3975C14.9083 2.515 15 2.7 15 2.89584V9.2075C15 9.40417 14.9075 9.58917 14.7492 9.7075C14.64 9.79 14.5083 9.8325 14.375 9.8325Z" fill="#333333"/>
<path d="M14.375 10.1875C14.03 10.1875 13.75 9.90751 13.75 9.56251V2.47917C13.75 2.13416 14.03 1.85416 14.375 1.85416C14.72 1.85416 15 2.13416 15 2.47917V9.56251C15 9.90751 14.72 10.1875 14.375 10.1875Z" fill="#333333"/>
<path d="M5.625 7.6875C5.28 7.6875 5 7.4075 5 7.0625V4.97916C5 4.63416 5.28 4.35416 5.625 4.35416C5.97 4.35416 6.25 4.63416 6.25 4.97916V7.0625C6.25 7.4075 5.97 7.6875 5.625 7.6875Z" fill="#333333"/>
</svg>
