<svg width="20" height="20" viewBox="0 0 20 20" fill="none" xmlns="http://www.w3.org/2000/svg">
<path d="M12.9297 4.70596C12.606 4.70596 12.3438 4.4426 12.3438 4.11758V0H3.55469C3.23105 0 2.96875 0.263367 2.96875 0.588226V19.4118C2.96875 19.7366 3.23105 20 3.55469 20H16.4453C16.769 20 17.0312 19.7366 17.0312 19.4118V4.70596H12.9297ZM5.89844 4.70596H10.5859C10.9096 4.70596 11.1719 4.96933 11.1719 5.29419C11.1719 5.61905 10.9096 5.88242 10.5859 5.88242H5.89844C5.5748 5.88242 5.3125 5.61905 5.3125 5.29419C5.3125 4.96933 5.5748 4.70596 5.89844 4.70596ZM14.1016 17.6471H5.89844C5.5748 17.6471 5.3125 17.3837 5.3125 17.0589C5.3125 16.734 5.5748 16.4706 5.89844 16.4706H14.1016C14.4252 16.4706 14.6875 16.734 14.6875 17.0589C14.6875 17.3837 14.4252 17.6471 14.1016 17.6471ZM14.1016 15.294H5.89844C5.5748 15.294 5.3125 15.0307 5.3125 14.7058C5.3125 14.381 5.5748 14.1176 5.89844 14.1176H14.1016C14.4252 14.1176 14.6875 14.381 14.6875 14.7058C14.6875 15.0307 14.4252 15.294 14.1016 15.294ZM14.1016 12.9411H5.89844C5.5748 12.9411 5.3125 12.6778 5.3125 12.3529V7.64709C5.3125 7.32224 5.5748 7.05887 5.89844 7.05887C6.22208 7.05887 6.48438 7.32224 6.48438 7.64709V11.7647H7.65625V8.82355C7.65625 8.49869 7.91855 8.23532 8.24219 8.23532C8.56583 8.23532 8.82812 8.49869 8.82812 8.82355V11.7647H10V7.64709C10 7.32224 10.2623 7.05887 10.5859 7.05887C10.9096 7.05887 11.1719 7.32224 11.1719 7.64709V11.7647H12.3438V8.82355C12.3438 8.49869 12.606 8.23532 12.9297 8.23532C13.2533 8.23532 13.5156 8.49869 13.5156 8.82355V11.7647H14.1016C14.4252 11.7647 14.6875 12.028 14.6875 12.3529C14.6875 12.6778 14.4252 12.9411 14.1016 12.9411Z" fill="#333333"/>
<path d="M13.5156 0.344543V3.52936H16.6881L13.5156 0.344543Z" fill="#333333"/>
</svg>
