<svg width="20" height="20" viewBox="0 0 20 20" fill="none" xmlns="http://www.w3.org/2000/svg">
<g clip-path="url(#clip0)">
<path d="M11.0393 6.29852L10.0389 4.27155L9.03854 6.29852C8.95294 6.47201 8.78738 6.5924 8.59573 6.62033L6.35895 6.94534L7.97745 8.52294C8.11615 8.65813 8.17932 8.85284 8.14667 9.04372L7.76459 11.2713L9.76517 10.2196C9.93652 10.1295 10.1413 10.1295 10.3127 10.2196L12.3134 11.2713L11.9313 9.04357C11.8985 8.85284 11.9617 8.65813 12.1004 8.52294L13.7189 6.94519L11.4821 6.62017C11.2906 6.5924 11.125 6.47201 11.0393 6.29852Z" fill="#333333"/>
<path d="M18.6663 0H1.41159C0.654756 0 0.0390625 0.615692 0.0390625 1.37253V13.9214C0.0390625 14.6782 0.654756 15.2939 1.41159 15.2939H3.56843V19.4115C3.56843 19.9364 4.20457 20.1955 4.57261 19.8274L9.10615 15.2939H18.6663C19.4231 15.2939 20.0388 14.6782 20.0388 13.9214V1.37253C20.0388 0.615692 19.4231 0 18.6663 0V0ZM15.3937 6.95572L13.143 9.14947L13.6743 12.2472C13.7567 12.7277 13.2503 13.0931 12.8208 12.8673L10.0389 11.4049L7.25709 12.8673C6.82649 13.0937 6.32127 12.7272 6.40351 12.2472L6.93482 9.14947L4.6843 6.95572C4.33579 6.61621 4.52851 6.02249 5.01023 5.95245L8.12059 5.50049L9.51158 2.68219C9.72688 2.24579 10.351 2.24564 10.5664 2.68219L11.9574 5.50049L15.0678 5.95245C15.5492 6.02234 15.7424 6.6159 15.3937 6.95572Z" fill="#333333"/>
</g>
<defs>
<clipPath id="clip0">
<rect width="20" height="20" fill="white"/>
</clipPath>
</defs>
</svg>
