<svg width="15" height="15" viewBox="0 0 15 15" fill="none" xmlns="http://www.w3.org/2000/svg">
<path d="M10.1367 12.3633H4.86328C4.62059 12.3633 4.42383 12.56 4.42383 12.8027C4.42383 13.0454 4.62059 13.2422 4.86328 13.2422H10.1367C10.3794 13.2422 10.5762 13.0454 10.5762 12.8027C10.5762 12.56 10.3794 12.3633 10.1367 12.3633Z" fill="#30C4F3"/>
<path d="M10.1367 8.84766H4.86328C4.62059 8.84766 4.42383 9.04441 4.42383 9.28711C4.42383 9.5298 4.62059 9.72656 4.86328 9.72656H10.1367C10.3794 9.72656 10.5762 9.5298 10.5762 9.28711C10.5762 9.04441 10.3794 8.84766 10.1367 8.84766Z" fill="#30C4F3"/>
<path d="M10.1367 10.6055H4.86328C4.62059 10.6055 4.42383 10.8022 4.42383 11.0449C4.42383 11.2876 4.62059 11.4844 4.86328 11.4844H10.1367C10.3794 11.4844 10.5762 11.2876 10.5762 11.0449C10.5762 10.8022 10.3794 10.6055 10.1367 10.6055Z" fill="#30C4F3"/>
<path d="M9.69727 0H3.54492V3.80859H9.69727V0Z" fill="#30C4F3"/>
<path d="M14.8713 2.47248L12.5275 0.12873C12.4451 0.0463184 12.3333 0 12.2168 0H10.5762V4.24805C10.5762 4.49074 10.3794 4.6875 10.1367 4.6875H3.10547C2.86277 4.6875 2.66602 4.49074 2.66602 4.24805V0H0.439453C0.196758 0 0 0.196758 0 0.439453V14.5605C0 14.8032 0.196758 15 0.439453 15C0.575537 15 14.3778 15 14.5605 15C14.8032 15 15 14.8032 15 14.5605V2.7832C15 2.66666 14.9537 2.55489 14.8713 2.47248ZM11.4551 14.1211H3.54492V7.96875H11.4551V14.1211Z" fill="#30C4F3"/>
</svg>
