<svg width="20" height="20" viewBox="0 0 20 20" fill="none" xmlns="http://www.w3.org/2000/svg">
<path d="M19.2892 15.7606L15.9975 12.4688C16.596 11.2718 16.995 9.87531 16.995 8.4788C16.995 3.79052 13.2044 0 8.51616 0C3.82788 0 0.0373535 3.79052 0.0373535 8.4788C0.0373535 13.1671 3.82788 16.9576 8.51616 16.9576C9.91267 16.9576 11.3092 16.5586 12.5062 15.9601L15.798 19.2519C16.7955 20.2494 18.2917 20.2494 19.2892 19.2519C20.187 18.2544 20.187 16.7581 19.2892 15.7606ZM8.51616 14.9626C4.92513 14.9626 2.03237 12.0698 2.03237 8.4788C2.03237 4.88778 4.92513 1.99501 8.51616 1.99501C12.1072 1.99501 15 4.88778 15 8.4788C15 12.0698 12.1072 14.9626 8.51616 14.9626Z" fill="#333333"/>
</svg>
